<?xml version="1.0" encoding="UTF-8"?>
<svg version="1.1" viewBox="0 0 2048 763" width="756" height="282" xmlns="http://www.w3.org/2000/svg">
<path transform="translate(547,134)" d="m0 0h3l-1 15-7 64-9 84-2 22-2 2-7-8-11-12-21-21-5 5-8 11-42 56-8 10-9 12-13 16-8 11-9 11-13 16-9 11-10 12-11 14-11 12-9 11-15 16-12 13-13 13-8 7-15 14-13 10-10 8-15 10-19 11-15 7-7 3-7 2-16 4-15 2h-16l-18-3-15-5-17-9-10-8-8-7-12-16-6-10-8-20-5-20-3-26v-16l2-19 3-19 6-23 7-18 9-19 10-16 8-11 8-10 9-10 15-15 14-11 10-7 17-10 19-9 21-7 17-4 26-3h23l26 3 25 6 24 8 14 6 3 3-1 4-18-4-15-3-28-3h-15l-27 3-21 5-20 7-16 8-13 8-14 10-12 11-10 10-10 13-10 15-8 14-8 19-6 20-4 20-1 25 1 17 4 19 5 13 6 9 4 5 8 6 13 5 6 1h12l19-5 19-9 12-8 12-9 16-13 10-9 8-7 36-36 8-10 10-11 11-14 9-11 10-13 12-15 8-11 27-36 14-19 15-20 10-14 12-17 7-10 1-4-19-10-23-13-20-11 4-3 34-13 33-13 41-16 49-19z" fill="#C49953"/>
<path transform="translate(474,364)" d="m0 0h2l3 9 3 22 2 22v45l-3 27-6 28-7 23-11 25-10 18-10 15-10 13-14 15-10 10-11 9-14 10-15 9-21 10-22 8-26 6-22 3h-34l-18-2-25-6-20-7-18-8-17-9-19-12-2-3 5-1h28l26-3 24-6 21-8 23-12 24-16 9-7 14-12 12-11 42-42 7-8 11-12 4-5h2v19l-4 21-7 21-9 19-10 15-13 16-13 13-13 10-17 11-15 8-22 8-26 6h-6v2l30-1 19-3 19-5 22-9 17-9 17-12 9-7 10-10 5-4 1-2h2l2-4 6-7 12-18 9-16 7-16 5-15 5-20 3-23v-47l10-14 8-11 14-19 13-17z" fill="#C49853"/>
<path transform="translate(218,335)" d="m0 0h28l18 4 15 6 16 9 16 13 8 8v8l-9 12-11 13-7 8-10 11-7 8-32 32-8 7-12 10-9 7-16 11-17 11-19 9-5-1-9-9-9-14-8-17-4-15-2-13v-20l3-18 7-19 9-16 13-16 16-12 14-8 16-6z" fill="#C49852"/>
<path transform="translate(717,287)" d="m0 0h21l7 1 11 13 11 14 12 14 11 14 12 14 8 10 18 22 2 1v-102l2-1h36l1 1v171l-3 1h-29l-13-15-8-10-9-11-11-13-11-14-12-14-8-10-11-13-1-2-3-1 1 5-1 97-1 1h-37l-1-1v-170z" fill="#FEFEFE"/>
<path transform="translate(977,285)" d="m0 0h30l14 3 16 6 13 8 11 9 11 13 8 15 5 16 1 6v25l-4 17-5 12-8 12-11 12-12 9-16 8-12 4-10 2h-32l-17-4-12-5-11-6-10-8-10-10-9-14-5-12-4-16-1-18 3-19 5-14 7-12 7-9 9-9 10-7 15-8 18-5zm9 33-14 3-13 7-8 7-7 11-4 9-3 16 1 13 3 11 6 12 8 9 10 7 13 5 6 1h16l11-3 14-7 8-7 7-11 4-10 2-9v-17l-3-13-7-13-11-11-14-7-6-2-7-1z" fill="#FEFEFE"/>
<path transform="translate(1485,287)" d="m0 0h128l1 1v31l-90 1v37h79l1 1-1 29-1 1h-78v40h93v31l-1 1h-131l-1-1v-171z" fill="#FEFEFE"/>
<path transform="translate(1830,287)" d="m0 0h30l8 1 1 99 1 12 5 13 6 8 10 6 8 2h16l10-3 9-6 6-8 4-13 1-16v-93l2-2h32l6 1v104l-3 19-5 14-7 11-7 8-11 8-13 6-17 4h-31l-17-4-16-8-12-11-6-8-7-15-3-13-1-6v-109z" fill="#FEFEFE"/>
<path transform="translate(1114,287)" d="m0 0h26l12 1 1 1v94l1 14 4 13 6 9 9 6 10 3h15l13-4 8-6 6-9 3-11 1-8 1-102 1-1h26l12 1v105l-3 18-5 14-9 14-7 7-12 8-13 5-13 3-19 1-19-2-16-5-11-6-12-11-7-10-4-8-4-13-2-13v-107z" fill="#FEFEFE"/>
<path transform="translate(1703,287)" d="m0 0h37l3 4 18 41 16 35 16 36 18 40 6 14v2l-2 1h-38l-3-5-13-31-1-1h-80l-3 10-11 26-1 1h-38l-2-2 18-40 13-29 20-45 13-29 11-25zm17 41-10 23-16 39 1 3h52l1-3-17-41-9-21z" fill="#FEFEFE"/>
<path transform="translate(1284,287)" d="m0 0h41l5 8 13 31 15 35 20 47 2 1 2-6 11-25 36-84 3-6 1-1h37l1 3-13 30-36 83-16 37-8 19-1 1h-39l-6-12-16-38-23-53-17-39-11-25z" fill="#FEFEFE"/>
<path transform="translate(207,361)" d="m0 0h12l5 2-2 4-4 4 2 1-2 4-13 19-4 6-5 5-7 8-16 12-1 2h-2l-1 3h-2l-2 6-4 1-4-5-3-8v-12l4-13 6-10 9-10 9-8 10-6z" fill="#E8C289"/>
<path transform="translate(1187,510)" d="m0 0h28l12 3 10 6 7 8 4 9 1 5v13l-3 10-6 9-8 6-13 5-17 2 3 17 2 10-1 1h-19l2-10 3-17v-50l-4-20zm20 4-3 4-2 6-2 24v15l1 18h12l11-4 8-6 5-10 2-11-1-13-4-10-7-8-7-4-4-1z" fill="#C79B57"/>
<path transform="translate(856,508)" d="m0 0h16l12 3 12 5 9 7 4 5-1 4-5 9-4-4-6-10-8-7-8-4-7-2h-18l-11 4-9 6-7 9-4 8-2 8v17l4 15 5 10 8 10 11 7 11 3h14l13-4 9-7 7-11 4-6 4 2v2l4 2-1 4-7 9-10 7-13 5-9 2h-17l-13-3-12-6-10-9-7-10-5-14-1-15 3-16 7-14 6-7 10-7 12-5z" fill="#C79B57"/>
<path transform="translate(1688,509)" d="m0 0h19l-3 14v19l10 40 9 31-1 1h-18l-1-4 3-17-1-13-29-1 1 22 1 13h-14l-1-3 7-22 8-36 8-40zm1 9-2 6-9 45v7h26l-1-9-10-38-3-11z" fill="#C79C57"/>
<path transform="translate(1041,509)" d="m0 0h19l-3 16v15l6 26 10 36 3 11-1 1h-18l-1-3 3-17v-15h-30l1 21 2 13-1 1h-14l-1-3 7-20 8-37 7-36zm1 10-2 6-9 45v6h27l-6-25-8-29z" fill="#C79C57"/>
<path transform="translate(1496,510)" d="m0 0h64l1 1v25h-6l-3-7-2-9-1-4-10-2-5 1-1 4v64l2 15 3 12v4h-19l1-9 3-16 1-12v-55l-3-7-7-1-5 2-3 5-4 15h-6l-1-1v-15z" fill="#C69B56"/>
<path transform="translate(1834,510)" d="m0 0h19l-1 10-3 15-1 14v47l1 9 1 4 5 1h10l8-4 5-8 4-9 4-1v9l-2 15-2 2h-48l1-7 3-14 1-8v-45l-3-19-2-7z" fill="#C69A55"/>
<path transform="translate(1362,510)" d="m0 0h19l-1 8-3 13-1 8v45l3 19 2 7v4h-19l-1-2 4-16 2-16v-37l-3-20-3-12z" fill="#C69A55"/>
<path transform="translate(547,134)" d="m0 0h3l-1 15-2 18-2 1 1-13v-13l-4-3-7 2v-2z" fill="#E9C48C"/>
<path transform="translate(376,201)" d="m0 0h2l-2 6 5 2 23 13 7 4-2 1-19-10-18-10-3-3z" fill="#E9C58E"/>
<path transform="translate(530,308)" d="m0 0h1v11l-2 2-7-8h3l2 2z" fill="#ECCB9B"/>
<path transform="translate(376,201)" d="m0 0h2l-2 6 4 2-2 1-9-5 4-3z" fill="#E9CA9A"/>
<path transform="translate(369,501)" d="m0 0h2v19h-1l-1-10 1-5-4 1 2-4z" fill="#E9C48D"/>
<path transform="translate(1834,610)" d="m0 0 3 2 17 1v1h-20z" fill="#E7C187"/>
</svg>
