<?xml version="1.0" encoding="UTF-8"?>
<svg version="1.1" viewBox="0 0 820 876" width="205" height="219" xmlns="http://www.w3.org/2000/svg">
<path transform="translate(0)" d="m0 0h820v876h-820z" fill="#071B2D"/>
<path transform="translate(793,30)" d="m0 0h3v10l-13 122-7 63-6 52-2 30-4-2-7-8-9-9-7-8-13-13-5-6-6-5-7-8-5-3-1 4-13 18-10 13-14 19-10 13-14 19-14 18-14 19-10 13-9 11-9 12-14 18-9 11-7 9-9 11-7 9-7 8-7 9-11 13-10 13-7 7-7 9-12 14-10 11-9 11-7 7-7 8-9 9-2 3h-2l-2 4-36 36-8 7-15 14-11 9-16 13-14 10-15 10-18 11-16 9-21 9-14 5-18 5-30 5h-23l-24-3-18-5-11-4-19-10-14-10-10-9-12-12-10-13-7-11-10-21-10-30-4-19-4-27v-42l5-38 7-29 12-36 8-18 12-22 11-18 10-14 11-14 10-11 7-8 15-15 22-18 17-12 25-15 17-8 13-6 33-11 26-6 20-3 11-1h37l28 3 24 4 27 7 30 10 13 5 13 7 4 4-1 4-11-1-34-8-38-5h-36l-38 5-26 6-21 7-25 11-18 10-15 10-16 12-10 9-5 4-6 7-14 14-9 12-8 11-10 15-9 16-12 26-9 27-5 22-4 27v43l4 26 3 11 3 10 9 17 9 11 8 7 17 9 13 3h21l20-5 18-7 21-11 16-11 15-11 17-14 10-9 10-8 11-11 8-7 45-45 9-11 9-10 12-14 10-12 13-17 10-12 12-16 7-9 8-10 10-13 8-11 9-12 10-13 9-12 8-11 9-12 14-19 10-13 11-16 6-8 12-17 8-11 12-17 5-7-1-3-16-8-25-13-23-13-22-12-6-4v-2l15-5 38-15 56-22 100-39 20-8 16-6z" fill="#B88B48"/>
<path transform="translate(685,369)" d="m0 0 2 1 5 18 5 40 3 35v35l-4 46-5 30-2 8-5 21-8 25-8 20-13 27-9 16-12 19-14 19-10 11-7 8-9 10-10 10-8 7-13 11-17 12-19 12-27 14-18 8-28 9-28 7-23 4-35 3h-15l-35-3-31-6-31-9-26-10-25-12-24-14-18-12-7-6 4-1 14 1h28l20-1 30-5 24-6 27-9 24-11 18-10 19-12 16-11 14-11 13-11 14-12 15-14 13-12 25-25 7-8 10-10 7-8 13-14 8-10 10-11h3v28l-4 23-6 23-7 19-12 25-8 13-12 17-9 10-9 11-9 9-11 9-12 10-18 12-17 10-21 10-30 10-22 5-30 5-3 1h53l31-5 23-6 21-8 18-8 17-9 17-11 14-10 13-11 10-9 17-17 7-8 13-18 10-15 10-18 8-16 4-9 4-12 7-23 5-22 4-28 1-14v-39l-1-21 4-6 10-14 3-3 4-7 8-10 14-19 16-21 11-15 13-17z" fill="#B88B48"/>
<path transform="translate(793,30)" d="m0 0h3v10l-13 122-7 63-6 52-2 30-4-2-7-8-9-9-7-8-13-13-5-6-6-5-7-8-5-3-1 4-13 18-10 13-14 19-10 13-14 19-14 18-14 19-10 13-9 11-9 12-14 18-9 11-7 9-9 11-7 9-7 8-2 3h-2l2-5 8-13h3l1-4 3-1 1-6 4-6h2v-2h2v-3l7-6 5-9 4-6 4-3 2-5h2v-3l2-1 3-6 4-4 5-7v-5l-5-2-7 8-9 5-4 5-7 1-1 4-3 2-4 1-10 9-9 3-13 10h-6l-5 3-6 1-8 7-5 3-6 3-16 1-5 1-2 6-1-3h-2l-1 2-5 2-6 5-3-3 2-4 2-1 1-6 2-4-2-1-1 2-3 4h-2l-2 5-1 2h-2l-1 5 3 1-3 1-1 2-2-2-4 6-5 3-3 1-4 4-11 2v2h-2v2h-2v6l-8 14-3-1-1 5h-3l-1 5-9 4-4 1v4l-2 1-2 5-10 10-4 3-8 4-6 5-5 6-4 4h-2l-1 4h-2v2h-2v2l-8 5-6 3-5 5-2 3h-3l2-4 11-10 10-8 11-11 8-7 45-45 9-11 9-10 12-14 10-12 13-17 10-12 12-16 7-9 8-10 10-13 8-11 9-12 10-13 9-12 8-11 9-12 14-19 10-13 11-16 6-8 12-17 8-11 12-17 5-7-1-3-16-8-25-13-23-13-22-12-6-4v-2l15-5 38-15 56-22 100-39 20-8 16-6z" fill="#D4A75E"/>
<path transform="translate(317,326)" d="m0 0h17l22 3 23 6 18 8 14 7 16 11 13 11 12 11 4 3v2h2l1 4-7 11-10 13-9 10-11 14-14 15-9 11-9 9-7 8-35 35-8 7-12 11-10 8-13 10-18 13-18 12-20 12-17 9-9 4h-6l-14-14-7-10-9-15-7-16-4-11-4-14-1-11-2-5-1-6v-26l5-30 8-24 12-23 9-12 11-14 11-10 16-11 17-10 17-7 21-6z" fill="#B88B48"/>
<path transform="translate(316,212)" d="m0 0h37l28 3 24 4 27 7 30 10 13 5 13 7 4 4-1 4-11-1-34-8-38-5h-36l-38 5-26 6-21 7-25 11-18 10-15 10-16 12-10 9-5 4-6 7-14 14-9 12-8 11-10 15-9 16-12 26-9 27-5 22-4 27v43l4 26 3 11 3 10 9 17 9 11 8 7 17 9 8 3v1l-10-1-12-6-10-7-6-7v-2l-4-2-7-6-1-6-4-3-2-6-3-3-2-8-3-6v-6h-2l-1-4-3-3-7 3-1 2v11l-3 12-2 1-3 7-6 3h-2v5l-4 2v2h-2l-2 6-7 6-5 1-2-1-1 3 1 2-3 5h-2l-2 5 4 12 2 4 2 8h2l4 9v2h2l8 13h-3l-7-6-10-15-10-19-9-25-6-23-4-24-1-9v-42l5-38 7-29 12-36 8-18 12-22 11-18 10-14 11-14 10-11 7-8 15-15 22-18 17-12 25-15 17-8 13-6 33-11 26-6 20-3z" fill="#D4A75E"/>
<path transform="translate(317,326)" d="m0 0h17l22 3 23 6 18 8 14 7 16 11 7 6-1 2-15-11-12-7-11-5-8-4-8-2-4-2h-9l-5-4-7-1-7 1-6 2h-4v7h6v2l-2 1 8 7 2 2-7 6h-2l3 6 1 5 7 8 3 9 1 14-4 10-3 6-5 4-5 5-11 7-3 3h-2l-2 4-9 10-5 5-7 9-9 10-1 2h-2v2h-2l-2 4-10 5-13 4-14 2-15-3-10-6-7-8-2-3-5 1-3 6-8 3h-6l-6-2-4 2-4-1-3 7-1 5-3 6h-1l-1-5v-28l4-23 8-24 12-23 9-12 11-14 11-10 16-11 17-10 17-7 21-6z" fill="#D4A75E"/>
<path transform="translate(685,369)" d="m0 0 2 1 5 18 3 24 1 6v30l-3 1-2-3v-4h-2l-1-3-5 1-2 10-2 4-5 2-2 2-1 7-5 6-8 5-7 2-3 5-9 2v2l-4 2-1 3-8 4h-3v-3l-9 2-2 3-3-2-1 14-2 22-1 5-1 7-1 1-1 8-2-1v-49l-1-20 13-18 3-3 4-7 8-10 14-19 16-21 11-15 13-17z" fill="#D4A75E"/>
<path transform="translate(406,472)" d="m0 0h2v2h-2v2h-2v6l-8 14-3-1-1 5h-3l-1 5-9 4-4 1v4l-2 1-2 5-10 10-4 3-8 4-6 5-5 6-4 4h-2l-1 4h-2v2h-2v2l-8 5-6 3-5 5-2 3h-3l2-4 11-10 10-8 11-11 8-7 45-45 9-11z" fill="#D0A35B"/>
<path transform="translate(357,330)" d="m0 0 8 1 19 6 18 8 15 9 11 8 6 5-1 2-15-11-12-7-11-5-8-4-8-2-4-2h-9l-5-4-3-1z" fill="#CFA25A"/>
<path transform="translate(611,354)" d="m0 0h2l1 6h-2l-2 4-3 3h-2l-2 6-5 3-3-2v-5l11-13z" fill="#B88B48"/>
<path transform="translate(529,572)" d="m0 0h3v28l-2 7-2-2v-25l-3 1-3 3h-2v2h-2l2-4z" fill="#CDA058"/>
<path transform="translate(527,475)" d="m0 0 1 3-12 14-10 13-7 7h-2l2-4 7-8 5-6 6-10 8-7z" fill="#CEA159"/>
<path transform="translate(696,450)" d="m0 0 2 3 1 13v29l-2 3-1-7z" fill="#D5A85F"/>
<path transform="translate(136,608)" d="m0 0 7 6 10 7 12 6 8 3v1l-10-1-12-6-10-7-5-6z" fill="#CC9F57"/>
<path transform="translate(687,579)" d="m0 0h1v9l-7 25-4 10-1-3 5-18 5-21z" fill="#CC9F58"/>
<path transform="translate(110,494)" d="m0 0h1l1 51h-1l-3-28v-12z" fill="#B88B48"/>
<path transform="translate(100,703)" d="m0 0 4 2 15 8 14 6v1h-7l-16-8-9-6z" fill="#CC9F58"/>
<path transform="translate(294,581)" d="m0 0 2 1-5 6-5 4-9 5-9 7-2-1 5-5 17-12z" fill="#CC9F58"/>
<path transform="translate(694,527)" d="m0 0 2 1v16l-1 6h-3v-15z" fill="#CFA25A"/>
<path transform="translate(227,622)" d="m0 0h6l-2 2-17 6-9 2h-5l4-3 21-6z" fill="#CB9E57"/>
<path transform="translate(435,580)" d="m0 0h2l-1 4h-2l-2 4-11 11h-2l2-4 6-7h2l2-4z" fill="#CDA058"/>
<path transform="translate(329,676)" d="m0 0 2 1-9 7-11 7-3-1 11-8z" fill="#CDA059"/>
<path transform="translate(452,563)" d="m0 0 1 3-13 13h-2l2-4 6-7h2v-2h2v-2z" fill="#CC9F58"/>
<path transform="translate(385,714)" d="m0 0 2 1-8 7-11 7-4 2 1-3 15-10z" fill="#CB9E57"/>
<path transform="translate(432,674)" d="m0 0 2 1-3 5-10 8h-2l2-4z" fill="#CDA058"/>
<path transform="translate(502,603)" d="m0 0 3 1-3 4h-2l-2 4-4 4h-2l1-4z" fill="#CB9E57"/>
<path transform="translate(316,562)" d="m0 0 2 1-10 10-2 3h-3l2-4z" fill="#CA9D56"/>
<path transform="translate(444,237)" d="m0 0 4 2 2 5h-9z" fill="#B88B48"/>
<path transform="translate(391,624)" d="m0 0h2l-2 4-7 7-4 3-2-1z" fill="#CDA058"/>
<path transform="translate(418,356)" d="m0 0 5 2 11 9-1 2-15-11z" fill="#CB9E57"/>
<path transform="translate(691,559)" d="m0 0h1v11l-1 4h-2v-10z" fill="#CFA25A"/>
<path transform="translate(507,500)" d="m0 0 1 3-9 9h-2l2-4z" fill="#CB9E57"/>
<path transform="translate(239,828)" d="m0 0 15 5 1 2-7-1-9-4z" fill="#CDA059"/>
<path transform="translate(120,714)" d="m0 0 6 2 7 3v1h-7l-6-4z" fill="#CFA25A"/>
<path transform="translate(406,472)" d="m0 0h2v2h-2v2h-2v3l-8 6 2-4z" fill="#C79A53"/>
<path transform="translate(275,595)" d="m0 0h2l-2 4-7 5-2-1 5-5z" fill="#CDA059"/>
<path transform="translate(482,529)" d="m0 0 1 3-7 8-3-1z" fill="#CC9F58"/>
<path transform="translate(156,782)" d="m0 0 5 1 3 1 1 4-5-1z" fill="#CA9D57"/>
</svg>
